<?xml version="1.0" encoding="UTF-8"?>
<svg
  version="1.2"
  viewBox="-600 -5 900 1100"
  width="1000"
  height="1000"
  id="spots"
  sodipodi:docname="vectores-marina-wbg.svg"
  xml:space="preserve"
  inkscape:version="1.3.1 (91b66b0783, 2023-11-16)"
  inkscape:export-filename="vectores-marina-wbg.svg"
  inkscape:export-xdpi="96"
  inkscape:export-ydpi="96"
  xmlns:inkscape="http://www.inkscape.org/namespaces/inkscape"
  xmlns:sodipodi="http://sodipodi.sourceforge.net/DTD/sodipodi-0.dtd"
  xmlns:xlink="http://www.w3.org/1999/xlink"
  xmlns="http://www.w3.org/2000/svg"
  xmlns:svg="http://www.w3.org/2000/svg"
  xmlns:rdf="http://www.w3.org/1999/02/22-rdf-syntax-ns#"
  xmlns:cc="http://creativecommons.org/ns#"
  xmlns:dc="http://purl.org/dc/elements/1.1/"><defs
     id="defs55" /><sodipodi:namedview
     id="namedview55"
     pagecolor="#ffffff"
     bordercolor="#000000"
     borderopacity="0.25"
     inkscape:showpageshadow="2"
     inkscape:pageopacity="0.0"
     inkscape:pagecheckerboard="0"
     inkscape:deskcolor="#d1d1d1"
     inkscape:zoom="0.813"
     inkscape:cx="499.38499"
     inkscape:cy="294.58795"
     inkscape:window-width="1920"
     inkscape:window-height="1009"
     inkscape:window-x="1912"
     inkscape:window-y="-2"
     inkscape:window-maximized="1"
     inkscape:current-layer="svg55" /><title
     id="title1">Vectores Marina Capas-ai</title><style
     id="style1">
		.s0 { opacity: .7;fill: none;stroke: #b9c18e;stroke-miterlimit:10 } 
		.s1 { fill: #0c4e6b } 
		.s2 { fill: #ffffff } 
	</style>
  <image xlink:href="/background.png" x="-1297" y="-147" width="2300" />
  <g
     id="vectores-de-formas"><g
       id="vector-14"><path
         id="&lt;Path&gt;"
         class="s0"
         d="m568 166.8h-296.9v-74.2h296.9z" /></g><g
       id="vector-13"><path
         id="path1"
         class="s0"
         d="m568 244.9h-296.9v-78.4h296.9z" /></g><g
       id="vector-12"><path
         id="path2"
         class="s0"
         d="m568 319.4h-296.9v-74.5h296.9z" /></g><g
       id="vector-11"><path
         id="path3"
         class="s0"
         d="m568 401.6h-296.9v-82.5h296.9z" /></g><g
       id="vector-10"><path
         id="path4"
         class="s0"
         d="m568 468.3h-296.9v-66.7h296.9z" /></g><g
       id="vector-9"><path
         id="path5"
         class="s0"
         d="m568 549.4h-296.9v-80.8h296.9z" /></g><g
       id="vector-8"><path
         id="path6"
         class="s0"
         d="m568 645.6h-296.9v-96.2h296.9z" /></g><g
       id="vector-7"><path
         id="path7"
         class="s0"
         d="m568 713.6h-296.9v-68.7h296.9z" /></g><g
       id="vector-6"><path
         id="path8"
         class="s0"
         d="m424.2 713.7h-153.3v31.2 1.4 241.5h136.3v-241.5h17z" /></g><g
       id="vector-5"><path
         id="path9"
         class="s0"
         d="m492.8 987.6h-85.8v-241.3h85.8z" /></g><g
       id="vector-4"><path
         id="path10"
         class="s0"
         d="m599 987.6h-106.7v-241.3h106.7z" /></g><g
       id="vector-3"><path
         id="path11"
         class="s0"
         d="m728.6 745.9h-129.6v-227.5h129.6z" /></g><g
       id="vector-2"><path
         id="path12"
         class="s0"
         d="m728.6 518.4h-129.6v-167h129.6z" /></g><g
       id="vector-1"><path
         id="path13"
         class="s0"
         d="m729.1 351.4h-130.6v-339.2h130.6z" /></g></g><g
     id="Numeros"><g
       id="14"><g
         id="g16"><g
           id="&lt;Group&gt;"><path
             id="path14"
             class="s1"
             d="m438.1 131.9c0 13.4-10.8 24.2-24.1 24.2-13.4 0-24.2-10.8-24.2-24.2 0-13.3 10.8-24.1 24.2-24.1 13.3 0 24.1 10.8 24.1 24.1z" /></g><g
           id="g15"><path
             id="&lt;Compound Path&gt;"
             class="s2"
             d="m404.8 127.7v-2.9h5.1v13.3h-3.2v-10.4z" /><path
             id="path15"
             fill-rule="evenodd"
             class="s2"
             d="m412.1 135.7v-2.5l5.8-8.2h3.5v8h1.5v2.7h-1.5v2.4h-3.2v-2.4zm6.4-7.3l-3.1 4.6h3.1z" /></g></g></g><g
       id="13"><g
         id="g19"><g
           id="g17"><path
             id="path16"
             class="s1"
             d="m438.1 208.1c0 13.4-10.8 24.2-24.1 24.2-13.4 0-24.2-10.8-24.2-24.2 0-13.3 10.8-24.1 24.2-24.1 13.3 0 24.1 10.8 24.1 24.1z" /></g><g
           id="g18"><path
             id="path17"
             class="s2"
             d="m404.8 203.9v-2.9h5.1v13.3h-3.2v-10.4z" /><path
             id="path18"
             class="s2"
             d="m413.4 201.7q1.2-1 3.3-1 1.4 0 2.3 0.4 1 0.5 1.5 1.3 0.5 0.9 0.5 1.9 0 1.2-0.6 1.9-0.6 0.8-1.4 1.1 1.1 0.4 1.7 1.2 0.6 0.8 0.6 2.1 0 1.1-0.6 2-0.5 0.8-1.5 1.3-1 0.5-2.3 0.5-2.2 0-3.5-1.1-1.3-1-1.4-3.2h3q0 0.8 0.5 1.3 0.4 0.4 1.3 0.4 0.7 0 1.1-0.4 0.3-0.4 0.3-1.1 0-0.9-0.5-1.2-0.6-0.4-1.8-0.4h-0.6v-2.6h0.6q0.9 0 1.5-0.3 0.6-0.3 0.6-1.1 0-0.7-0.4-1.1-0.3-0.3-1-0.3-0.7 0-1 0.4-0.3 0.4-0.4 1h-3q0-1.9 1.2-3z" /></g></g></g><g
       id="12"><g
         id="g22"><g
           id="g20"><path
             id="path19"
             class="s1"
             d="m438.1 283.7c0 13.4-10.8 24.2-24.1 24.2-13.4 0-24.2-10.8-24.2-24.2 0-13.3 10.8-24.2 24.2-24.2 13.3 0 24.1 10.9 24.1 24.2z" /></g><g
           id="g21"><path
             id="path20"
             class="s2"
             d="m404.8 279.5v-2.9h5.1v13.3h-3.2v-10.4z" /><path
             id="path21"
             class="s2"
             d="m412.5 286.9q1.8-1.4 2.8-2.4 1-0.9 1.8-2 0.7-1 0.7-2 0-0.8-0.4-1.2-0.3-0.4-1-0.4-0.7 0-1.1 0.5-0.4 0.5-0.4 1.5h-3q0-1.6 0.7-2.6 0.6-1 1.6-1.5 1.1-0.5 2.3-0.5 2.2 0 3.3 1.1 1.1 1.1 1.1 2.9 0 1.9-1.3 3.6-1.4 1.7-3.4 3.3h4.9v2.5h-9.2v-2.3q0.7-0.5 0.6-0.5z" /></g></g></g><g
       id="11"><g
         id="g25"><g
           id="g23"><path
             id="path22"
             class="s1"
             d="m438.1 365.1c0 13.3-10.8 24.1-24.1 24.1-13.4 0-24.2-10.8-24.2-24.1 0-13.4 10.8-24.2 24.2-24.2 13.3 0 24.1 10.8 24.1 24.2z" /></g><g
           id="g24"><path
             id="path23"
             class="s2"
             d="m407.5 360.8v-2.9h5v13.4h-3.2v-10.5z" /><path
             id="path24"
             class="s2"
             d="m414.4 360.8v-2.9h5v13.4h-3.2v-10.5z" /></g></g></g><g
       id="10"><g
         id="g28"><g
           id="g26"><path
             id="path25"
             class="s1"
             d="m438.1 433.4c0 13.4-10.8 24.2-24.1 24.2-13.4 0-24.2-10.8-24.2-24.2 0-13.3 10.8-24.1 24.2-24.1 13.3 0 24.1 10.8 24.1 24.1z" /></g><g
           id="g27"><path
             id="path26"
             class="s2"
             d="m404.8 429.2v-2.9h5.1v13.3h-3.2v-10.4z" /><path
             id="path27"
             fill-rule="evenodd"
             class="s2"
             d="m413.3 427.8q1.2-1.8 3.9-1.8 2.7 0 3.9 1.8 1.2 1.8 1.2 5 0 3.1-1.2 5-1.2 1.8-3.9 1.8-2.7 0-3.9-1.8-1.3-1.9-1.3-5 0-3.2 1.3-5zm5.5 2.1q-0.4-1-1.6-1-1.3 0-1.7 1-0.4 1-0.4 2.9 0 1.2 0.2 2 0.1 0.8 0.5 1.3 0.5 0.5 1.4 0.5 0.8 0 1.3-0.5 0.4-0.5 0.6-1.3 0.1-0.8 0.1-2 0-1.9-0.4-2.9z" /></g></g></g><g
       id="9"><g
         id="g31"><g
           id="g29"><path
             id="path28"
             class="s1"
             d="m438.1 509c0 13.3-10.8 24.1-24.1 24.1-13.4 0-24.2-10.8-24.2-24.1 0-13.4 10.8-24.2 24.2-24.2 13.3 0 24.1 10.8 24.1 24.2z" /></g><g
           id="g30"><path
             id="path29"
             fill-rule="evenodd"
             class="s2"
             d="m414.1 512.7q1 0 1.4-0.9 0.4-0.8 0.4-2.8-0.4 0.6-1.1 0.9-0.7 0.3-1.5 0.3-1.2 0-2.1-0.5-0.9-0.4-1.5-1.4-0.5-1-0.5-2.3 0-1.4 0.6-2.4 0.5-1 1.6-1.5 1-0.6 2.4-0.6 2.7 0 3.8 1.7 1.1 1.7 1.1 4.9 0 2.4-0.5 4-0.4 1.5-1.4 2.3-1 0.8-2.8 0.8-1.4 0-2.3-0.5-1-0.6-1.5-1.5-0.6-0.9-0.6-2h2.9q0.2 1.5 1.6 1.5zm1.1-5.4q0.4-0.5 0.4-1.3 0-0.9-0.4-1.3-0.5-0.5-1.3-0.5-0.8 0-1.3 0.5-0.4 0.5-0.4 1.3 0 0.8 0.4 1.3 0.5 0.5 1.4 0.5 0.7 0 1.2-0.5z" /></g></g></g><g
       id="8"><g
         id="g34"><g
           id="g32"><path
             id="path31"
             class="s1"
             d="m438.1 596.3c0 13.3-10.8 24.1-24.1 24.1-13.4 0-24.2-10.8-24.2-24.1 0-13.4 10.8-24.2 24.2-24.2 13.3 0 24.1 10.8 24.1 24.2z" /></g><g
           id="g33"><path
             id="path32"
             fill-rule="evenodd"
             class="s2"
             d="m409.5 592.4q0-1 0.5-1.8 0.5-0.8 1.6-1.3 1-0.5 2.5-0.5 1.6 0 2.6 0.5 1 0.5 1.5 1.3 0.5 0.8 0.5 1.8 0 1-0.4 1.7-0.5 0.8-1.3 1.2 1 0.5 1.5 1.3 0.6 0.8 0.6 1.9 0 1.3-0.7 2.3-0.6 0.9-1.8 1.4-1.1 0.5-2.5 0.5-1.3 0-2.5-0.5-1.1-0.5-1.7-1.4-0.7-1-0.7-2.3 0-1.1 0.5-1.9 0.6-0.9 1.5-1.3-1.7-0.9-1.7-2.9zm3.3 4.7q-0.6 0.5-0.6 1.3 0 0.8 0.5 1.2 0.6 0.5 1.4 0.5 0.9 0 1.4-0.5 0.5-0.4 0.5-1.2 0-0.8-0.5-1.3-0.5-0.5-1.4-0.5-0.8 0-1.3 0.5zm2.5-5.4q-0.4-0.4-1.2-0.4-0.7 0-1.1 0.4-0.4 0.5-0.4 1.2 0 0.7 0.4 1.1 0.4 0.4 1.1 0.4 0.7 0 1.2-0.4 0.4-0.4 0.4-1.1 0-0.8-0.4-1.2z" /></g></g></g><g
       id="7"><g
         id="g37"><g
           id="g35"><path
             id="path34"
             class="s1"
             d="m438.1 677.7c0 13.4-10.8 24.2-24.1 24.2-13.4 0-24.2-10.8-24.2-24.2 0-13.3 10.8-24.2 24.2-24.2 13.3 0 24.1 10.9 24.1 24.2z" /></g><g
           id="g36"><path
             id="path35"
             class="s2"
             d="m417.6 672.9l-4.6 11h-3.2l4.6-10.7h-5.7v-2.6h8.9z" /></g></g></g><g
       id="6"><g
         id="g40"><g
           id="g38"><path
             id="path37"
             class="s1"
             d="m368 849.7c0 13.4-10.8 24.2-24.2 24.2-13.3 0-24.2-10.8-24.2-24.2 0-13.3 10.9-24.1 24.2-24.1 13.4 0 24.2 10.8 24.2 24.1z" /></g><g
           id="g39"><path
             id="path38"
             fill-rule="evenodd"
             class="s2"
             d="m345 845.2q-0.4-0.4-1.1-0.4-1 0-1.5 0.9-0.4 0.9-0.4 2.9 0.4-0.6 1.1-1 0.8-0.4 1.7-0.4 1.8 0 2.9 1.2 1 1.1 1 3.1 0 1.3-0.5 2.4-0.5 1-1.6 1.5-1 0.6-2.4 0.6-2.8 0-3.9-1.8-1.1-1.7-1.1-5 0-3.5 1.2-5.2 1.1-1.7 3.7-1.7 1.3 0 2.3 0.6 0.9 0.5 1.4 1.4 0.5 0.8 0.6 1.9h-2.9q-0.2-0.7-0.5-1zm-2.3 5q-0.5 0.4-0.5 1.3 0 0.9 0.5 1.3 0.5 0.5 1.4 0.5 0.8 0 1.2-0.4 0.5-0.5 0.5-1.4 0-0.8-0.5-1.3-0.4-0.5-1.3-0.5-0.8 0-1.3 0.5z" /></g></g></g><g
       id="5"><g
         id="g43"><g
           id="g41"><path
             id="path40"
             class="s1"
             d="m475.2 869.8c0 13.3-10.9 24.1-24.2 24.1-13.3 0-24.2-10.8-24.2-24.1 0-13.4 10.9-24.2 24.2-24.2 13.3 0 24.2 10.8 24.2 24.2z" /></g><g
           id="g42"><path
             id="path41"
             class="s2"
             d="m455.5 865.3h-5.7v2.6q0.3-0.4 1-0.7 0.6-0.2 1.4-0.2 1.4 0 2.3 0.6 0.9 0.6 1.3 1.6 0.4 1 0.4 2.1 0 2.1-1.2 3.4-1.2 1.2-3.4 1.2-1.4 0-2.5-0.5-1.1-0.5-1.7-1.3-0.6-0.9-0.6-2.1h3q0.2 0.6 0.6 0.9 0.4 0.4 1.1 0.4 0.9 0 1.3-0.5 0.4-0.6 0.4-1.5 0-0.9-0.4-1.4-0.5-0.4-1.3-0.4-0.6 0-1 0.3-0.4 0.3-0.5 0.7h-3.1v-7.9h8.6z" /></g></g></g><g
       id="4"><g
         id="g46"><g
           id="g44"><path
             id="path43"
             class="s1"
             d="m572.7 868.1c0 13.4-10.8 24.2-24.1 24.2-13.4 0-24.2-10.8-24.2-24.2 0-13.3 10.8-24.1 24.2-24.1 13.3 0 24.1 10.8 24.1 24.1z" /></g><g
           id="g45"><path
             id="path44"
             fill-rule="evenodd"
             class="s2"
             d="m543.7 871.9v-2.5l5.8-8.2h3.5v8h1.5v2.7h-1.5v2.4h-3.1v-2.4zm6.3-7.3l-3 4.6h3z" /></g></g></g><g
       id="3"><g
         id="g49"><g
           id="g47"><path
             id="path46"
             class="s1"
             d="m685.8 630c0 13.4-10.8 24.2-24.2 24.2-13.3 0-24.1-10.8-24.1-24.2 0-13.3 10.8-24.1 24.1-24.1 13.4 0 24.2 10.8 24.2 24.1z" /></g><g
           id="g48"><path
             id="path47"
             class="s2"
             d="m658.1 623.6q1.2-1 3.3-1 1.3 0 2.3 0.5 1 0.4 1.5 1.3 0.5 0.8 0.5 1.8 0 1.2-0.6 2-0.6 0.7-1.4 1v0.1q1 0.3 1.6 1.1 0.6 0.8 0.6 2.1 0 1.1-0.5 2-0.5 0.8-1.5 1.3-1 0.5-2.4 0.5-2.2 0-3.5-1-1.3-1.1-1.3-3.3h3q0 0.8 0.4 1.3 0.5 0.4 1.3 0.4 0.7 0 1.1-0.4 0.4-0.4 0.4-1.1 0-0.8-0.5-1.2-0.6-0.4-1.8-0.4h-0.6v-2.6h0.6q0.9 0 1.5-0.3 0.6-0.3 0.6-1.1 0-0.7-0.4-1-0.4-0.4-1-0.4-0.7 0-1 0.4-0.4 0.4-0.4 1.1h-3.1q0.1-2 1.3-3.1z" /></g></g></g><g
       id="2"><g
         id="g52"><g
           id="g50"><path
             id="path49"
             class="s1"
             d="m685.8 436.1c0 13.3-10.8 24.1-24.2 24.1-13.3 0-24.1-10.8-24.1-24.1 0-13.4 10.8-24.2 24.1-24.2 13.4 0 24.2 10.8 24.2 24.2z" /></g><g
           id="g51"><path
             id="path50"
             class="s2"
             d="m657.2 439.3q1.8-1.5 2.8-2.4 1-1 1.7-2 0.7-1.1 0.7-2 0-0.8-0.3-1.2-0.3-0.4-1-0.4-0.7 0-1.1 0.5-0.4 0.5-0.4 1.5h-3q0-1.6 0.6-2.6 0.7-1.1 1.7-1.6 1-0.5 2.3-0.5 2.2 0 3.3 1.2 1.1 1.1 1.1 2.9 0 1.9-1.4 3.6-1.3 1.7-3.4 3.2h5v2.6h-9.2v-2.3q0.6-0.5 0.6-0.5z" /></g></g></g><g
       id="1"><g
         id="g55"><g
           id="g53"><path
             id="path52"
             class="s1"
             d="m685.8 178.7c0 13.4-10.8 24.2-24.2 24.2-13.3 0-24.1-10.8-24.1-24.2 0-13.3 10.8-24.1 24.1-24.1 13.4 0 24.2 10.8 24.2 24.1z" /></g><g
           id="g54"><path
             id="path53"
             class="s2"
             d="m658.4 174.5v-2.9h5.1v13.3h-3.2v-10.4z" /></g></g></g></g><metadata
     id="metadata55"><rdf:RDF><cc:Work
         rdf:about=""><dc:title>Vectores Marina Capas-ai</dc:title></cc:Work></rdf:RDF></metadata></svg>